<?xml version="1.0" encoding="UTF-8"?>
<svg width="161.17" height="164.08" enable-background="new 0 0 631.104 323.379" viewBox="0 0 161.17 164.08001" xmlns="http://www.w3.org/2000/svg">
 <path d="m144.90683,50.72688c-.017-.029-.032-.05-.053-.077l-.068.01 .121.067m-33.389-32.246 .08-.102h-.037l-.043.102m28.678,95.12299c-.069-.346-.299-.472-.402-.809-.196-.626 0-1.027 0-1.684 0-.288.046-.455 0-.74-.079-.486-.345-.691-.538-1.145-.17-.389-.065-.757-.405-1.01-.221-.162-.407-.267-.674-.201-.234.058-.312.222-.47.404-.203.229-.482.376-.405.672 .063.234.389.176.471.404 .119.332-.181.535-.402.809-.213.26-.374.385-.676.539-.22.112-.423.031-.604.201-.236.222-.06.516-.201.807-.149.303-.428.357-.54.674-.07.199.107.417-.066.54-.178.124-.324-.165-.539-.136-.141.02-.218.057-.336.136-.272.18-.103.61-.403.74-.194.083-.381-.14-.539,0s.011.341-.068.538c-.174.439-.581.47-1.009.672-.277.133-.466.13-.741.271-.253.128-.341.295-.605.402-.247.102-.429.025-.675.135-.237.107-.299.296-.536.404-.196.089-.367.002-.539.135-.291.228.051.62-.135.942-.13.226-.311.266-.472.471-.332.428-.416.752-.539,1.279-.13.564-.322.962-.065,1.482 .139.283.38.332.536.604 .181.31.176.53.271.875 .088.313.183.483.203.808 .024.427-.037.684-.203,1.078-.147.348-.372.466-.538.809-.203.418-.093.746-.337,1.143-.164.271-.332.365-.539.606-.327.384-.6.55-.807,1.009-.229.51-.315.869-.201,1.415 .074.368.245.534.401.875s.316.51.404.875c.063.257.036.411.069.674 .058.502.088.787.2,1.278 .087.373.068.616.27.943 .175.284.354.387.607.605 .341.296.503.565.939.672 .284.069.454.032.742,0 .407-.043.628-.125 1.01-.268 .717-.27 1.063-.561 1.685-1.01 .239-.176.42-.236.604-.472 .273-.347.219-.653.337-1.077 .195-.699.084-1.166.404-1.818 .151-.307.337-.425.471-.74 .127-.299.129-.492.202-.808 .12-.521.063-.853.27-1.346 .155-.37.413-.495.538-.875 .142-.425-.087-.726.067-1.146 .163-.438.57-.508.742-.941 .079-.202.067-.334.133-.54 .117-.356.292-.516.404-.873 .073-.231.041-.385.134-.606 .148-.344.447-.406.608-.741 .149-.315.157-.529.2-.876 .052-.416-.036-.658 0-1.076 .049-.533.082-.846.27-1.347 .124-.33.223-.507.405-.808 .164-.274.368-.37.471-.674 .119-.348-.053-.579 0-.942 .019-.133-.008-.226.065-.336 .188-.275.522.434.81.27 .319-.184.027-.578.068-.943 .05-.473.293-.739.198-1.208m-84.82301-23.427c-.199-.027-.473.002-.471.201 0,.168.174.223.337.27 .208.06.5.078.538-.135 .035-.202-.201-.309-.404-.336m-43.557-38.911c-.048-.162-.182-.201-.336-.27-.169-.076-.356-.213-.471-.067-.1.125-.03.277.067.404 .176.23.824.21.74-.067m.472,1.885c-.194-.098-.361.01-.539.134-.137.097-.252.17-.269.337-.011.107.043.164.067.269 .03.131-.036.252.068.337 .122.101.256-.006.404-.067 .239-.101.428-.216.471-.472 .037-.221-.002-.438-.202-.538m55.338,22.821c-.261.104-.463.203-.539.471-.066.234-.024.424.134.606 0,0 .386.155.605.067 .244-.098.335-.285.402-.538s.159-.532-.065-.673c-.179-.113-.342-.012-.537.067m60.45401-17.436c-.158-.205-.423-.087-.607-.269-.166-.165-.154-.334-.268-.54-.187-.329-.345-.482-.539-.807-.14-.231-.127-.436-.339-.606-.174-.14-.324-.125-.536-.202-.392-.14-.719-.041-1.011-.336-.223-.226-.151-.483-.338-.741-.205-.287-.405-.373-.672-.606-.182-.159-.279-.257-.47-.404-.274-.206-.469-.264-.742-.47-.282-.214-.409-.37-.673-.606l.066.067c-.342-.211-.67-.195-.873-.539s-.012-.619-.068-1.009c-.077-.511-.221-.777-.337-1.28-.119-.522-.093-.841-.271-1.346-.122-.355-.239-.536-.4005-.8765-.1535-.3155-.1115-.6115-.4065-.8065m-89.33301,18.244c-.233.147-.434.105-.686.124-.056.127-.122.26-.122.414 0,.345-.035.575.135.875 .129.227.288.288.471.472l.539.538c.157.157.263.231.404.404 .192.237.167.478.404.673 .217.181.484.059.673.27 .164.186.085.385.202.605 .032.063.067.111.115.182 .168.224.349.341.558.559 .18.188.262.317.471.473 .237.172.414.198.673.336 .239.126.376.194.606.336 .273.169.43.264.673.472 .326.276.531.435.741.808 .15.268.035.541.269.74 .243.207.565-.072.809.135 .16.137.113.328.269.472 .256.237.544.083.875.202s.456.383.808.404c.116.006.214-.012.303-.046 .215-.08.38-.247.639-.36 .237-.104.38-.145.606-.27 .28-.155.376-.35.672-.471s.494-.083.808-.135c.316-.053.518-.002.809-.135 .239-.109.3-.295.538-.404 .268-.121.448-.109.741-.135 .551-.047.861.093 1.414.135 .419.032.664-.014 1.077.068s.629.169 1.009.3365c.215.0945.349.1315.539.2705 .18.131.19.34.404.404 .316.092.432-.287.741-.404 .375-.144.644-.036 1.009-.203 .292-.132.396-.31.673-.471 .204-.117.318-.188.539-.27 .203-.074.345-.039.538-.134 .217-.108.261-.286.472-.405 .305-.171.53-.146.875-.201 .235-.037.373-.021.606-.067 .268-.054.527.03.673-.202 .084-.135-.022-.271.068-.404 .149-.221.41-.08.672-.135 .306-.063.495-.129.763-.176l.18-.025c.468-.056.74,0 1.2135-.0005l1.0115-.0005c.368,0 .576-.023.943,0 .237.016.374.012.606.066 .272.066.53.025.672.27 .08.139-.035.281.067.404 .107.128.256.059.404.135 .213.111.3.232.471.404 .237.238.428.355.538.672 .115.323-.055.539 0,.876 .044.271.007.48.202.673 .127.125.243.131.405.203 .129.057.213.064.336.135 .179.1.211.267.405.336 .335.121.542-.141.874-.27 .437-.17.612-.457 1.075-.538 .392-.069.618.097 1.011.067 .185-.014.287-.064.472-.067 .211-.004.343-.012.54.067 .258.104.337.275.537.471 .318.313.484.51.74.875 .276.396.446.623.605,1.077 .152.429.162.694.203,1.146 .042.47.054.742-.0005,1.2115-.0555.4555-.1585.6995-.2695,1.1455-.101.395-.192.609-.27005,1.00945-.08805.46645-.05095.73955-.13695,1.20855-.131.727-.379,1.094-.537,1.817-.099.441-.228.691-.204,1.144 .026.465.157.716.337,1.145 .152.357.256.553.472.875 .166.25.304.359.471.605 .24.35.316.584.54.943 .2.322.295.518.537.809 .192.227.356.303.54.537 .188.242.285.391.402.679 .126.302-.035.589.203.81 .18.172.437.021.606.203 .181.197.002.441.135.674 .111.193.263.229.401.402 .123.153.188.268.26839.41446 .14339.25545.31661.51554.41061.79454 .046.139.027.271.0225.3965-.0035.1245.0065.2395.1095.3455 .141.14.381.021.473.199 .046.095.004.154-.074.205-.142.091-.405.15-.464.334-.118.373.124.615.337.943 .111.172.229.229.337.404 .229.368.114.672.27,1.076 .127.328.246.493.404.808 .104.211.181.321.268.54 .165.399.412.667.271,1.075-.074.214-.236.271-.338.472-.169.335-.22.568-.201.943 .021.447.229.662.403,1.076 .146.347.267.525.405.875 .121.31.166.492.268.808 .137.419.342.638.338,1.077-.006.508-.113.854-.473,1.212-.023.024-.05.048-.076.068-.189.149-.387.166-.598.336-.172.14-.264.229-.403.404-.323.403-.428.706-.538,1.211-.07.335.088.569-.066.876-.092.182-.239.225-.336.403-.193.349-.095.614-.135,1.009-.036.342-.007.54-.068.877-.038.213-.053.338-.134.538-.123.296-.329.387-.473.673-.158.32-.2.525-.269.876-.098.489-.026.78-.067,1.278-.039.475-.091.739-.135,1.212-.022.242-.055.451-.087.65l.087.09m-43.357-52.23899c.044-.007.081-.007.122-.01l.019-.046-.141.056m-5.52-9.223v.203c.007.342-.018.536-.067.875-.039.264-.123.406-.135.673-.016.345-.012.562.135.875 .15.32.292.511.605.673 .262.135.464.039.741.135 .344.12.493.287.807.471l.135,1.28c.144.064.269.096.38252.13669 .10352.03869.24948.10431.35748.19831 .31.272.279.581.473.943 .127.239.24.353.336.606 .076.202-.008.376.134.539 .195.22.512-.049.741.134 .148.118.15.257.269.404 .119.143.193.219.337.337 .147.119.297.113.404.269 .097.142.064.275.006.415l-.141.056c.315-.052.538.035.808-.134m117.20601,60.38599c-.241.036-.482.162-.472.404 .011.281.396.332.673.269 .113-.025.194-.043.27-.134 .083-.104.107-.21.067-.338-.066-.214-.318-.235-.538-.201m4.24-1.885c-.294-.014-.488.107-.672.336-.143.175-.171.317-.203.539-.024.155-.096.278 0,.403 .148.2.399-.062.604-.202s.267-.271.405-.471c.121-.174.371-.287.268-.472-.08-.144-.236-.127-.402-.133m-23.764-17.1c-.148.002-.259.121-.269.27-.01.117.032.213.134.271 .153.087.371-.03.405-.202s-.102-.341-.27-.339m-8.349-59.64499c-.222-.148-.491.063-.672-.135-.147-.159.002-.37-.135-.538-.188-.233-.499-.026-.74-.202-.166-.121-.337-.405-.337-.405-.157-.367-.31-.553-.404-.942-.105-.434-.054-.697-.068-1.144s.05-.701 0-1.145c-.049-.481-.114-.752-.268-1.211-.126-.38-.236-.58-.404-.942-.174-.373-.287-.576-.471-.943l-.607-.943c-.313-.105-.53-.087-.807-.269-.189-.125-.36259-.30313-.47755-.47571-.16996-.28159-.15246-.49309-.18746-.81609-.055-.499.439-.88925.125-1.28125-.169-.21-.42075-.1055-.59375-.3125-.228-.267-.0978-.547-.21875-.875-.151-.396-.34525-.5565-.53125-.9375-.115-.231-.15225-.401-.28125-.625-.206-.355-.48625-.4395-.65625-.8125-.067-.151-.0763-.26025-.15625-.40625-.125-.227-.29375-.27675-.46875-.46875-.227-.249-.42425-.33825-.53125-.65625-.103-.299.019-.4985 0-.8125-.016-.237.0455-.412-.0625-.625-.132-.267-.38575-.25275-.59375-.46875-.224-.232-.26875-.40425-.46875-.65625-.219-.277-.418-.4005-.625-.6875-.263-.362-.33725-.598-.53125-1-.139-.284-.24275-.45-.34375-.75-.121-.356-.3095-.5815-.1875-.9375 .049-.144.0605-.25975.1875-.34375l-1.28125-2.8125c.19353.0315.6361.07663 1.0625.125l-.9375-.25c-.473-.13-.7035-.25075-1.1875-.34375-.3285-.06375-.60106-.23108-.875-.21875v5e-005c-.0913.0041-.18275.04025-.28125.09375-.197.105-.22425.249-.40625.375-.253.175-.506.09325-.75.28125-.27.209-.18675.556-.46875.75-.328.226-.602.133-1,.125-.567-.009-.85225-.22475-1.40625-.34375-.395-.086-.632-.0315-1-.1875-.316-.132-.433-.34775-.75-.46875-.229-.086-.387-.10725-.625-.15625-.443-.091-.68-.1025-1.125-.1875-.263-.051-.4445-.234-.6875-.125-.188.083-.14075.37125-.34375.40625c-.256.045-.30275-.26875-.45937-.47563-.17162-.22587-.17162-.43887-.39462-.61287-.375-.294-.741-.064-1.211-.135-.424-.064-.657-.123-1.077-.202s-.907.189-1.082-.202m-67.859,21.475-.269-.202 .269.673c.106.237.113.4.269.606 .181.239.429.23.606.471 .226.309.234.562.269.943 .032.341.11.582-.067.875-.124.208-.371.184-.471.404-.131.291.082.492.134.807l.068-.066c.158.157.241.252.404.404 .177.165.464.161.471.404 .006.189-.219.221-.269.403-.042.152-.006.247 0,.405 .015.396.184.614.135,1.009-.065.524-.492.697-.606,1.212-.052.231-.033.37-.068.605-.06.412-.21853.83369-.27027,1.20684-.01373.34716.17327.55516.06827.88116-.153.48-.637.468-1.009.808-.275.249-.551.323-.674.672-.141.404-.018.712.203,1.078 .182.302.501.297.672.605 .158.285.143.517.136.808m97.34301,39.451c-.201.05-.092.35 0,.539 .067.131.123.283.272.268 .183-.019.124-.295.065-.471s-.155-.381-.337-.336m1.012,8.28c-.264-.334-.315-.597-.405-1.009-.085-.388.059-.639-.068-1.012-.087-.256-.243-.352-.336-.605-.129-.348-.074-.576-.134-.941-.048-.29-.126-.449-.135-.74-.011-.348.013-.553.135-.877 .107-.285.338-.373.405-.672 .07-.338.009-.563-.137-.875-.108-.24-.238-.336-.403-.54-.199-.245-.483-.294-.539-.604-.049-.271.091-.424.203-.674 .054-.121.089-.213.142-.303 .034-.057.073-.109.126-.169 .27-.296.548-.345.943-.403 .231-.037.437.164.605,0 .152-.148.087-.328.068-.539-.026-.283-.045-.504-.271-.673-.112-.085-.204-.083-.338-.136s-.269-.009-.335-.1335c-.086-.1675.181-.2375.272-.4035 .137-.247.201-.398.269-.673 .083-.332-.013-.543.069-.874s.117-.548.336-.81c.131-.157.262-.188.404-.336 .153-.165.223-.276.335-.471 .13-.225.099-.413.27-.606 .163-.187.375-.15.538-.337 .101-.115.112-.213.203-.336 .132-.179.295-.209.404-.404 .094-.167.055-.297.134-.471 .124-.273.28-.377.4725-.6055 .3225-.3865.5235-.5885.8765-.9435 .38-.383.657-.537 1.01-.943 .399-.455.489-.813.876-1.278 .401-.486.72-.677 1.145-1.145 .3-.331.417-.567.74-.875 .243-.231.411-.327.675-.538 .45-.364.664-.621 1.143-.943 .352-.235.594-.297.944-.539 .396-.275.664-.41.94-.807 .23-.328.19-.605.402-.943 .299-.471.598-.637 1.012-1.01 .305-.273.526-.374.808-.672 .35-.373.527-.615.742-1.078 .204-.445.137-.764.336-1.212 .063-.145.123-.261.181-.37 .081-.141.168-.271.29-.438 .229-.316.455-.416.673-.74 .197-.293.296-.473.405-.809 .129-.402 0-.676.134-1.076 .092-.279.222-.403.336-.674 .129-.306.144-.502.271-.808 .171-.412.325-.616.539-1.011 .182-.34.28-.536.471-.875 .102-.184.154-.293.269-.471 .163-.25.306-.355.472-.605 .181-.274.284-.434.403-.741 .125-.327.158-.527.201-.875 .057-.443-.146-.723 0-1.144 .06-.167.141-.239.203-.405 .122-.323.186-.533.134-.875-.052-.313-.249-.437-.343-.74m-111.95201-35.141c.204.001.226-.231.336-.404 .095-.148.305-.262.202-.404-.079-.108-.204-.08-.337-.067-.272.025-.556.215-.547.471 .001.022.004.045.009.067 .041.182.151.335.337.337m-.674,1.75c.152-.021.221-.102.337-.202 .127-.11.188-.189.269-.336s.142-.239.135-.405c-.01-.21-.112-.329-.27-.471-.131-.117-.236-.258-.404-.201s-.117.249-.201.403c-.119.217-.279.298-.338.539-.042.179-.096.315 0,.471 .106.17.274.229.472.202m-2.356.673c.165-.035.264-.118.337-.269 .091-.19.044-.359-.068-.538-.088-.143-.175-.223-.336-.27-.179-.053-.335-.058-.472.067-.104.097-.127.196-.135.337-.009.166.036.271.135.404 .142.188.31.319.539.269m-2.289-1.01c.132.132.156.292.337.337 .227.057.363-.112.537-.27 .185-.165.285-.296.338-.538 .033-.154.094-.278 0-.404-.127-.168-.33-.021-.539,0-.241.025-.406-.001-.606.135-.186.127-.393.253-.336.472 .037.143.163.163.269.268m-2.221-.74c-.004.026-.003.041 0,.067 .009.125.047-.01.114-.167-.058.01-.105.033-.114.1m.808-.337c-.029-.183-.297-.13-.471-.067-.096.034-.168.176-.223.304 .103-.019.249.017.357.033 .166.024.362-.103.337-.27m.807,30.093c-.001-.073 0-.137.001-.203h-.001v.203m117.87701,4.712c-.092-.306.069-.561-.134-.808-.12-.147-.217-.234-.403-.27-.289-.054-.414.2-.675.337-.239.127-.36.224-.604.337-.28.129-.451.168-.74.269-.316.11-.48.228-.81.269-.34.043-.537-.121-.875-.067s-.476.26-.808.337c-.233.054-.37.043-.606.067-.313.031-.519-.063-.809.067-.303.138-.31.449-.605.606-.351.187-.612.139-1.01.135-.372-.003-.574-.185-.94-.135-.248.034-.37.125-.606.202-.419.137-.652.227-1.078.337-.362.094-.565.205-.942.202-.293-.003-.49.02-.74-.135-.369-.23-.274-.623-.471-1.01-.15-.293-.128-.564-.40841-.74391-.1624-.10591-.27559-.11409-.46559-.13109-.212-.018-.353.168-.54.067-.22-.118-.28-.369-.2-.605 .103-.316.562-.044.806-.269 .139-.129.238-.218.271-.404 .043-.255-.202-.357-.271-.606-.077-.28.108-.511-.067-.741m-55.27001,59.23899-.087-.09c-.068.445-.127.829-.047,1.369s.063.916.401,1.347c.211.264.46.28.676.538 .277.334.3.609.472,1.01 .109.261.099.447.268.674 .146.193.287.246.473.404l-.135.066c.155.289.293.432.403.74 .073.204.088.326.134.539 .067.313.065.496.135.808 .064.294.094.463.203.741 .168.427.348.629.604,1.01 .221.325.383.482.607.807 .191.282.374.414.47.74 .052.18.056.287.068.473 .03.504-.197.773-.203,1.279-.004.612.101.959.269,1.547 .071.239.142.366.204.607 .097.384.136.611.133,1.01-.003.37-.145.571-.133.941 .017.549.316.805.402,1.349 .06.361.02.575.067.94 .054.398.119.617.203,1.01 .101.475.068.771.27,1.212 .154.345.344.483.538.808 .2.332.203.597.473.875 .236.247.543.191.7365.4735 .1295.1845.1205.3285.2005.5385 .151.396.273.604.403,1.009 .059.183.109.283.136.473 .045.313-.102.492-.066.807 .042.389.13.611.335.943 .217.346.519.396.742.74 .184.287.161.514.336.807 .151.258.336.34.471.606 .124.245.177.401.203.674 .024.263.003.418-.069.673-.052.192-.041.352-.201.471-.189.142-.403-.123-.604,0-.295.182-.187.534-.135.875 .061.42.284.604.538.943 .121.164.309.201.337.403 .032.245-.369.294-.337.54 .04.303.392.283.673.402s.485.047.739.202c.271.165.3.401.539.606 .217.186.322.387.606.404 .257.015.378-.146.606-.27 .248-.136.369-.247.604-.404l.876-.135c.211-.052.326-.096.538-.135 .338-.062.56.066.876-.067 .241-.103.297-.296.539-.403 .22-.099.363-.146.605-.135 .248.012.357.168.605.202 .181.024.29.03.471,0 .222-.036.321-.149.539-.202 .205-.051.326-.063.537-.066 .372-.012.579.069.944.135 .263.047.406.146.674.134 .215-.01.334-.063.538-.134 .275-.099.403-.225.673-.338 .306-.127.48-.213.807-.269 .362-.063.604.14.943,0 .292-.122.318-.409.607-.539 .334-.151.604.085.941-.067 .287-.131.357-.342.607-.539s.42-.272.672-.471c.365-.287.543-.481.875-.808 .464-.454.759-.688 1.145-1.212 .2-.275.2-.531.471-.74 .282-.219.573-.076.875-.27s.392-.392.604-.673c.244-.319.313-.546.54-.876 .267-.383.476-.558.741-.941 .227-.33.333-.531.538-.875 .215-.365.314-.584.539-.943 .269-.433.283-.854.74-1.076 .218-.107.424.024.605-.135 .037-.031.063-.066.082-.102 .106-.198-.025-.448.052-.706 .156-.519.496-.702.673-1.213 .116-.331.133-.532.202-.875 .088-.415.17-.705.224-1.044 .024-.149.043-.312.051-.5 .011-.236-.027-.371 0-.606 .049-.413.08-.683.337-1.011 .148-.189.286-.247.471-.402 .258-.217.389-.361.672-.539 .32-.2.522-.278.875-.404 .43301-.151.73501-.067 1.14701-.27 .287-.141.435-.255.672-.471 .207-.188.356-.284.47-.538 .13-.289.053-.493.069-.809 .019-.42-.069-.662 0-1.077 .058-.352.185-.527.269-.875 .069-.285.16-.448.136-.74-.033-.375-.32-.508-.404-.875-.086-.385.091-.628 0-1.01-.075-.309-.244-.437-.337-.741-.109-.354.068-.632-.134-.942-.134-.202-.361-.188-.474-.402-.168-.331-.066-.631.135-.944 .103-.155.185-.232.339-.337 .269-.18.498-.105.807-.2 .293-.091.505-.071.742-.271 .304-.258.18-.609.401-.942 .279-.415.584-.525.943-.875 .168-.164.268-.267.422-.421l.05-.051c.264-.262.428-.395.673-.673 .285-.322.356-.582.673-.875 .362-.337.627-.466 1.077-.673 .498-.23.859-.15 1.347-.404 .545-.285.771-.58 1.212-1.01 .305-.299.586-.41.742-.808 .123-.319-.051-.554.064-.875 .172-.473.539-.57.876-.943 .212-.234.359-.345.54-.604 .197-.29.333-.464.403-.809 .082-.415-.106-.655-.136-1.077-.036-.525-.011-.821 0-1.347 .013-.577.038-.903.067-1.481 .023-.473.054-.738.068-1.211 .015-.525-.157-.846 0-1.347 .085-.28.315-.38.338-.673 .017-.273-.031-.461-.204-.674s-.394-.168-.604-.336c-.147-.115-.20691-.209-.33995-.3365-.19905-.1945-.36305-.2525-.53405-.4725m-30.49701-84.21799c-.085-.192.072-.341 0-.538-.069-.193-.178-.277-.335-.404-.281-.221-.611-.03-.877-.27-.199-.181-.107-.46-.336-.606-.289-.184-.568-.084-.875.068-.268.13-.294.371-.539.538-.324.219-.581.19-.943.337-.402.164-.748.124-1.009.471-.243.321-.243.61-.202,1.01 .036.364.281.514.336.875 .068.444.082.751-.134,1.144-.161.294-.322.432-.607.606-.325.199-.56.29-.942.27-.468-.025-.687-.279-1.076-.538-.279-.187-.377-.379-.673-.539-.629-.34-1.137.008-1.817-.202-.383-.118-.573-.255-.942-.404-.417-.168-.724-.128-1.08-.404-.145-.115-.217-.194-.335-.337-.247-.298-.319-.518-.472-.875-.128-.306-.033-.573-.268-.808-.236-.235-.486-.186-.81-.269-.259-.067-.408-.09-.673-.135-.416-.071-.732.113-1.077-.134-.212-.154-.196-.377-.402-.539-.282-.22-.527-.186-.875-.269-.693-.167-1.113-.089-1.818-.202-.174-.028-.313-.022-.452-.042-.093-.013-.186-.039-.29-.093-.181-.095-.293-.164-.402-.336-.092-.141-.02-.287-.137-.404-.185-.186-.41,0-.672,0l-.00391.18478c-.131-.131-.19109-.26878-.33309-.38778-.193-.157-.385-.142-.538-.336-.154-.196-.222-.358-.203-.606 .028-.32.195-.511.473-.673 .164-.096.313-.026.472-.134 .222-.153.171-.393.337-.606 .135-.177.298-.208.403-.404 .137-.256.142-.461.065-.741-.054-.204-.128-.313-.269-.471-.151-.169-.346-.148-.472-.337-.092-.139-.103-.241-.135-.404-.074-.39-.048-.656.135-1.01 .13-.247.347-.289.472-.538 .075-.148.222-.264.135-.404-.084-.135-.28-.167-.404-.068l-.54.539-.267-.269-.338-.337c-.15-.256-.281-.388-.537-.538s-.448-.254-.742-.202c-.28.048-.379.231-.605.404-.25.192-.347.358-.606.538-.146.102-.28906.13722-.41303.20161l-.19797.13539c-.452.102-.696-.207-1.145-.337l-.942-.269-.605.202c-.262-.078-.444-.351-.674-.202-.166.109-.061.33-.201.471-.227.227-.562-.067-.81.135-.145.12-.084.361-.269.404-.17.04-.245-.124-.403-.202-.262-.131-.391-.25-.674-.337-.402-.124-.656-.054-1.076-.067s-.656-.011-1.076,0c-.475.012-.842-.227-1.212.067-.178.141-.154.339-.337.471-.259.188-.491.096-.807.135-.445.054-.701.018-1.146.067-.342.039-.541.049-.874.135-.241.062-.402.058-.606.202-.336.236-.112.744-.472.943-.345.191-.616-.092-1.009-.068-.319.02-.501.046-.808.135-.272.078-.434.119-.674.269-.205.128-.288.245-.471.404-.266.233-.346.473-.671.606-.363.148-.615,0-1.008,0l-.605-.27c-.237-.052-.658.035-1.077.067-.29.024-.457.011-.741.068-.326.066-.476.284-.808.27-.424-.019-.619-.266-.942-.539-.314-.264-.326-.59-.674-.808-.17-.106-.274-.232-.471-.202-.22.035-.277.221-.404.404-.261.377-.089.723-.269,1.145-.157.368-.339.528-.539.875-.223.386-.275.649-.539,1.01-.142.195-.236.295-.403.471-.244.256-.38.41-.674.605-.312.209-.528.258-.874.405-.414.174-.65.268-1.078.403-.516.164-.864.092-1.345.337-.418.212-.814.291-.943.741-.123.422.352.637.336,1.077-.009.241-.094.367-.135.606-.035.209.006.34-.067.538-.092.246-.309.294-.404.539s-.117.414-.067.673c.037.196.122.288.202.471 .127.291.289.427.336.74 .052.342.005.56-.135.875s-.338.404-.538.674c-.282.38-.344.669-.674,1.01-.232.242-.431.304-.672.539-.2.194-.262.354-.472.538-.213.187-.358.265-.605.404-.349.195-.554.316-.943.403-.283.065-.456.011-.74.068-.326.066-.548.063-.808.27-.323.255-.288.574-.471.942l.067-.067l-.067.067c-.211.42-.291.678-.539,1.077-.188.303-.269.507-.539.741-.186.162-.338.19-.538.336-.286.208-.464.322-.674.606-.237.322-.31.554-.403.942s-.016.619-.068,1.011c-.052.397.127.778-.202,1.009-.156.11-.299.049-.47.135-.368.184-.395.507-.675.808-.2.217-.377.288-.538.538-.166.259-.162.453-.268.74-.129.343-.196.539-.337.876-.17.4-.253.634-.472,1.01-.143.245-.197.411-.404.605-.18.17-.369.156-.538.337-.251.267-.26.518-.337.876-.05.232-.042.369-.067.605l.269.202" fill="none" stroke="#052c65" stroke-width=".75"/>
</svg>
